<svg width="49" height="46" viewBox="0 0 49 46" fill="none" xmlns="http://www.w3.org/2000/svg">
<path d="M45.513 43.2471L39.9811 31.7194C39.8911 31.5329 39.7248 31.3937 39.5247 31.3379L39.3585 31.2915C38.4128 31.0281 37.4503 30.8953 36.4951 30.8953C32.504 30.8953 29.0222 33.102 27.2157 36.353C26.9171 35.53 26.5454 34.7343 26.1038 33.9745C28.4356 30.7699 32.2244 28.6812 36.4951 28.6812C36.5544 28.6812 36.6148 28.6823 36.6751 28.6844L38.1396 28.7139C38.3249 28.7181 38.4488 28.5263 38.3694 28.3598L25.0512 0.609638C24.9443 0.387282 24.6266 0.387282 24.5207 0.609638L11.2046 28.3566C11.1252 28.5231 11.2491 28.7149 11.4344 28.7107L12.8174 28.6833C12.9042 28.6812 12.9911 28.6812 13.0779 28.6812C17.3486 28.6812 21.1374 30.7699 23.4692 33.9745C23.0276 34.7343 22.6559 35.53 22.3573 36.353C20.5508 33.1009 17.0679 30.8953 13.0779 30.8953C12.1068 30.8953 11.1443 31.026 10.2177 31.2842L10.0515 31.3305C9.85132 31.3864 9.68507 31.5255 9.59506 31.712L4.05897 43.2471H1.08125C0.919235 43.2471 0.786865 43.3778 0.786865 43.54V45.1482C0.786865 45.3094 0.918176 45.4411 1.08125 45.4411H14.0055C14.1675 45.4411 14.2999 45.3105 14.2999 45.1482V43.54C14.2999 43.3788 14.1686 43.2471 14.0055 43.2471H11.2671L15.9074 33.5783C19.1456 34.7365 21.4689 37.8231 21.4689 41.4398V45.1492C21.4689 45.3105 21.6002 45.4422 21.7633 45.4422H27.8087C27.9707 45.4422 28.1031 45.3115 28.1031 45.1492V41.4398C28.1031 37.8231 30.4253 34.7365 33.6646 33.5783L38.3048 43.2471H35.5664C35.4044 43.2471 35.272 43.3778 35.272 43.54V45.1482C35.272 45.3094 35.4034 45.4411 35.5664 45.4411H48.4918C48.6538 45.4411 48.7861 45.3105 48.7861 45.1482V43.54C48.7861 43.3788 48.6548 43.2471 48.4918 43.2471H45.513ZM8.82416 43.2471H6.50086L11.2841 33.2801C11.8696 33.1536 12.4711 33.0893 13.0768 33.0893C13.2823 33.0893 13.4866 33.0967 13.6889 33.1115L8.82416 43.2471ZM24.7854 5.14738L35.0592 26.5536C34.3296 26.6221 33.6116 26.7433 32.9085 26.9129L25.0512 10.5408C24.9443 10.3185 24.6266 10.3185 24.5207 10.5408L16.6634 26.9129C15.9603 26.7422 15.2423 26.621 14.5127 26.5536L24.7854 5.14738ZM18.7781 27.5968L24.7854 15.0785L30.7928 27.5968C28.9725 28.3387 27.3015 29.441 25.8687 30.8658C25.4833 31.2494 25.1222 31.6488 24.7844 32.065C24.4466 31.6498 24.0855 31.2494 23.7 30.8658C22.2684 29.441 20.5974 28.3387 18.7781 27.5968ZM25.8984 43.2481H23.6736V41.4398C23.6736 39.5903 24.0717 37.8305 24.7854 36.2424C25.5002 37.8305 25.8973 39.5903 25.8973 41.4398V43.2481H25.8984ZM35.882 33.1115C36.0843 33.0967 36.2876 33.0893 36.494 33.0893C37.0902 33.0893 37.6928 33.1557 38.29 33.2864L43.07 43.2471H40.7467L35.882 33.1115Z" fill="#E3B486"/>
</svg>
