<svg width="151" height="215" viewBox="0 0 151 215" fill="none" xmlns="http://www.w3.org/2000/svg">
<path d="M140.642 131.45L123.247 96.0491C122.964 95.4763 122.441 95.0491 121.812 94.8776L121.289 94.7352C118.316 93.9261 115.289 93.5184 112.286 93.5184C99.7358 93.5184 88.7877 100.295 83.1071 110.279C82.1682 107.751 80.9994 105.308 79.6109 102.975C86.943 93.1333 98.8568 86.719 112.286 86.719C112.472 86.719 112.662 86.7223 112.852 86.7288L117.457 86.8194C118.039 86.8323 118.429 86.2433 118.179 85.732L76.3012 0.512135C75.9649 -0.170712 74.9659 -0.170712 74.633 0.512135L32.7615 85.7223C32.5118 86.2336 32.9013 86.8226 33.4841 86.8097L37.8327 86.7255C38.1057 86.719 38.3788 86.719 38.6518 86.719C52.0806 86.719 63.9944 93.1333 71.3265 102.975C69.938 105.308 68.7693 107.751 67.8303 110.279C62.1498 100.292 51.1983 93.5184 38.6518 93.5184C35.5984 93.5184 32.5717 93.9197 29.6582 94.7125L29.1354 94.8549C28.5061 95.0265 27.9833 95.4536 27.7003 96.0265L10.2924 131.45H0.929217C0.419767 131.45 0.00354004 131.852 0.00354004 132.35V137.288C0.00354004 137.784 0.416437 138.188 0.929217 138.188H41.5687C42.0781 138.188 42.4943 137.787 42.4943 137.288V132.35C42.4943 131.855 42.0814 131.45 41.5687 131.45H32.958L47.5489 101.758C57.7312 105.314 65.0367 114.793 65.0367 125.9V137.292C65.0367 137.787 65.4496 138.191 65.9623 138.191H84.9718C85.4812 138.191 85.8975 137.79 85.8975 137.292V125.9C85.8975 114.793 93.1996 105.314 103.385 101.758L117.976 131.45H109.365C108.856 131.45 108.44 131.852 108.44 132.35V137.288C108.44 137.784 108.853 138.188 109.365 138.188H150.008C150.518 138.188 150.934 137.787 150.934 137.288V132.35C150.934 131.855 150.521 131.45 150.008 131.45H140.642ZM25.2763 131.45H17.9708L33.0112 100.842C34.8526 100.454 36.7439 100.256 38.6485 100.256C39.2944 100.256 39.9371 100.279 40.5731 100.324L25.2763 131.45ZM75.4654 14.4474L107.771 80.1851C105.476 80.3954 103.219 80.7676 101.008 81.2886L76.3012 31.0104C75.9649 30.3276 74.9659 30.3276 74.633 31.0104L49.9263 81.2886C47.7154 80.7644 45.4578 80.3922 43.1636 80.1851L75.4654 14.4474ZM56.5758 83.389L75.4654 44.9457L94.355 83.389C88.6312 85.6673 83.3768 89.0524 78.8717 93.4278C77.6597 94.6058 76.5242 95.8323 75.4621 97.1106C74.3999 95.8355 73.2644 94.6058 72.0524 93.4278C67.5506 89.0524 62.2963 85.6673 56.5758 83.389ZM78.965 131.454H71.9692V125.9C71.9692 120.221 73.2212 114.816 75.4654 109.939C77.713 114.816 78.9616 120.221 78.9616 125.9V131.454H78.965ZM110.358 100.324C110.994 100.279 111.633 100.256 112.282 100.256C114.157 100.256 116.052 100.46 117.93 100.861L132.96 131.45H125.655L110.358 100.324Z" fill="#013F3A"/>
<path d="M44.7052 162.8C44.5454 162.467 43.9593 162.467 43.7995 162.8L31.0366 189.467C30.9134 189.726 31.1498 190.004 31.4895 190.004H36.524C36.7271 190.004 36.9103 189.901 36.9802 189.749L38.3121 186.839L40.1468 182.891L44.249 173.389L48.3546 182.891H43.4499L41.6185 186.839H50.1859L51.5644 189.752C51.6377 189.904 51.8175 190.004 52.0173 190.004H57.0552C57.3981 190.004 57.6312 189.726 57.508 189.467L44.7052 162.8Z" fill="#013F3A"/>
<path d="M78.888 166.823C81.322 166.823 83.5729 167.729 85.2411 169.214C85.4042 169.36 85.6506 169.36 85.8071 169.208L88.5375 166.554C88.6974 166.399 88.6973 166.143 88.5342 165.994C86.0269 163.658 82.6439 162.247 78.8913 162.247C70.6435 162.247 64.7732 168.072 64.7732 176.321C64.7732 184.923 71.1296 190.396 78.8913 190.396C82.6439 190.396 86.0269 188.984 88.5342 186.687C88.6973 186.535 88.6974 186.282 88.5409 186.124L85.8105 183.438C85.654 183.285 85.4076 183.285 85.2444 183.431C83.5795 184.917 81.3253 185.823 78.8946 185.823C73.7069 185.823 69.5614 182.188 69.5614 176.321C69.558 170.81 73.0975 166.823 78.888 166.823Z" fill="#013F3A"/>
<path d="M116.857 167.212C117.08 167.212 117.264 167.037 117.264 166.817V163.031C117.264 162.814 117.084 162.636 116.857 162.636H98.8834C98.6603 162.636 98.4772 162.811 98.4772 163.031V189.61C98.4772 189.827 98.657 190.005 98.8834 190.005H116.857C117.08 190.005 117.264 189.83 117.264 189.61V185.824C117.264 185.607 117.084 185.429 116.857 185.429H103.182V178.587H114.483C114.706 178.587 114.889 178.413 114.889 178.192V174.445C114.889 174.228 114.71 174.05 114.483 174.05H103.182V167.209H116.857V167.212Z" fill="#013F3A"/>
<path d="M149.898 207.622C149.302 207.062 148.526 206.752 147.301 206.59L145.619 206.341C145.036 206.266 144.574 206.075 144.247 205.781C143.951 205.509 143.798 205.14 143.798 204.68C143.798 203.807 144.407 202.787 146.119 202.787C146.994 202.787 148.1 202.891 148.999 203.664L150.501 202.224C149.375 201.221 148.077 200.791 146.199 200.791C143.325 200.791 141.467 202.354 141.467 204.774C141.467 205.881 141.79 206.748 142.423 207.347C143.035 207.926 143.874 208.273 145.056 208.434L146.738 208.684C147.454 208.781 147.774 208.897 148.093 209.185C148.42 209.502 148.583 209.923 148.583 210.438C148.583 211.137 148.236 212.311 145.906 212.311C144.457 212.311 143.348 211.955 142.529 211.224L140.988 212.722C142.213 213.871 143.691 214.366 145.886 214.366C148.952 214.366 150.934 212.803 150.934 210.383C150.93 209.146 150.594 208.243 149.898 207.622Z" fill="#013F3A"/>
<path d="M10.3155 200.978L6.59955 209.078L2.85026 200.978H0L6.59955 214.447L13.1758 200.978H10.3155Z" fill="#013F3A"/>
<path d="M24.6864 203.185V206.486H30.3337V208.674H24.6864V211.975H31.4791V214.182H22.4189V200.978H31.4791V203.185H24.6864Z" fill="#013F3A"/>
<path d="M52.8992 214.179H50.6084L43.8557 204.787V214.179H41.5848V200.978H43.8756L50.6483 210.37V200.978H52.8992V214.179Z" fill="#013F3A"/>
<path d="M71.2166 202.997H67.7071V214.182H65.4562V202.997H61.9467V200.978H71.2166V202.997Z" fill="#013F3A"/>
<path d="M82.4578 200.978V208.881C82.4578 208.881 82.4778 209.787 82.944 210.635C83.5067 211.674 84.459 212.163 85.8542 212.163C87.2693 212.163 88.2216 211.671 88.7643 210.635C89.2305 209.787 89.2505 208.881 89.2505 208.862V200.978H91.5014V208.881C91.5014 209.014 91.4814 210.276 90.8221 211.558C89.8898 213.367 88.125 214.367 85.8542 214.367C83.5833 214.367 81.8185 213.367 80.8862 211.558C80.2269 210.276 80.2069 209.011 80.2069 208.881V200.978H82.4578Z" fill="#013F3A"/>
<path d="M125.048 203.185V206.486H130.695V208.674H125.048V211.975H131.841V214.182H122.781V200.978H131.841V203.185H125.048Z" fill="#013F3A"/>
<path d="M108.969 208.509C110.784 208.182 112.159 206.635 112.159 204.777C112.159 202.68 110.407 200.978 108.25 200.978H102.346V203.185H108.013C108.949 203.185 109.708 203.923 109.708 204.832C109.708 205.742 108.949 206.48 108.013 206.48H102.346V208.45V208.58V214.182H104.803V208.674H106.212L110.038 214.182H112.918L108.969 208.509Z" fill="#013F3A"/>
</svg>
